<?xml version="1.0" encoding="UTF-8"?>
<svg id="Layer_1" xmlns="http://www.w3.org/2000/svg" version="1.1" viewBox="0 0 298.7 247.1">
  <!-- Generator: Adobe Illustrator 29.4.0, SVG Export Plug-In . SVG Version: 2.1.0 Build 152)  -->
  <defs>
    <style>
      .st0 {
        fill: #fff;
      }
    </style>
  </defs>
  <path class="st0" d="M265.3,98.9h4.7l-2.3-15.8-2.4,15.8ZM276.5,108.8h-5l-.8-5.7h-6l-.8,5.7h-4.5l5-31.2h7.2l5,31.2Z"/>
  <polygon class="st0" points="267 145.4 262 145.4 262 114.2 267 114.2 267 127.6 272.5 127.6 272.5 114.2 277.5 114.2 277.5 145.4 272.5 145.4 272.5 132 267 132 267 145.4"/>
  <rect class="st0" x="262.6" y="151.9" width="1.2" height="15.3"/>
  <polygon class="st0" points="267.4 151.9 267.4 153 272.8 153 272.8 167.3 273.9 167.3 273.9 153 279.3 153 279.3 151.9 267.4 151.9"/>
  <g>
    <g>
      <path class="st0" d="M169.6,77.5v24.1c0,2.3,1,3,2.5,3s2.5-.8,2.5-3v-24.1h4.7v23.8c0,5-2.5,7.9-7.3,7.9s-7.3-2.9-7.3-7.9v-23.8h4.9Z"/>
      <path class="st0" d="M188.9,82v22.3h2.8c1.6,0,2.5-.8,2.5-3v-16.3c0-2.2-.9-3-2.5-3h-2.8ZM184,77.5h7.8c4.9,0,7.3,2.7,7.3,7.7v15.8c0,5-2.4,7.7-7.3,7.7h-7.8v-31.3Z"/>
      <path class="st0" d="M208.5,82v9.6h1.9c1.8,0,2.9-.8,2.9-3.3v-3.1c0-2.2-.7-3.2-2.5-3.2h-2.4ZM213.8,108.8c-.3-.8-.5-1.3-.5-3.8v-4.9c0-2.9-1-4-3.2-4h-1.7v12.7h-4.9v-31.2h7.4c5.1,0,7.3,2.3,7.3,7.2v2.4c0,3.2-1,5.3-3.2,6.4,2.4,1,3.3,3.4,3.3,6.6v4.8c0,1.5,0,2.6.6,3.8h-5Z"/>
      <path class="st0" d="M227.5,77.5v24.1c0,2.3,1,3,2.5,3s2.5-.8,2.5-3v-24.1h4.7v23.8c0,5-2.5,7.9-7.3,7.9s-7.3-2.9-7.3-7.9v-23.8h4.9Z"/>
      <path class="st0" d="M249.3,91.4h6.9v9.9c0,5-2.5,7.9-7.3,7.9s-7.3-2.9-7.3-7.9v-16.3c0-5,2.5-7.9,7.3-7.9s7.3,2.9,7.3,7.9v3h-4.7v-3.4c0-2.3-1-3.1-2.5-3.1s-2.5.8-2.5,3.1v16.9c0,2.2,1,3,2.5,3s2.5-.8,2.5-3v-5.7h-2.2v-4.5Z"/>
    </g>
    <path class="st0" d="M171.4,113.8c4.8,0,7.2,2.9,7.2,7.9v1.2h-4.7v-1.5c0-2.3-.9-3.1-2.4-3.1s-2.4.8-2.4,3.1c0,6.4,9.6,7.6,9.6,16.6s-2.5,7.9-7.3,7.9-7.3-2.9-7.3-7.9v-2.1h4.7v2.4c0,2.3,1,3,2.5,3s2.5-.8,2.5-3c0-6.4-9.6-7.6-9.6-16.6,0-5,2.5-7.9,7.2-7.9"/>
    <polygon class="st0" points="195.2 128.8 193.4 145.4 186.6 145.4 183.1 114.2 187.9 114.2 190.6 138.8 192.9 114.2 197.6 114.2 200.1 139 202.6 114.2 206.9 114.2 203.4 145.4 196.9 145.4 195.2 128.8"/>
    <rect class="st0" x="212.1" y="114.2" width="4.9" height="31.2"/>
    <polygon class="st0" points="222 114.2 237.2 114.2 237.2 118.7 232.1 118.7 232.1 145.4 227.2 145.4 227.2 118.7 222.1 118.7 222 114.2"/>
    <path class="st0" d="M256.4,133.8v4.1c0,5-2.5,7.9-7.3,7.9s-7.3-2.9-7.3-7.9v-16.3c0-5,2.5-7.9,7.3-7.9s7.3,2.9,7.3,7.9v3h-4.7v-3.4c0-2.3-1-3.1-2.5-3.1s-2.5.8-2.5,3.1v16.9c0,2.3,1,3,2.5,3s2.5-.8,2.5-3v-4.5h4.7Z"/>
    <g>
      <path class="st0" d="M151.5,173.9h0c-2.6,0-4.8-2.1-4.8-4.8v-97.5c2.6,0,4.8,2.1,4.8,4.8v97.5Z"/>
      <path class="st0" d="M211.3,165l2-2.4c1.4,1.2,2.8,1.9,4.6,1.9s2.2-.6,2.2-1.4h0c0-.9-.5-1.3-3.1-2-3.1-.8-5.1-1.7-5.1-4.7h0c0-2.9,2.3-4.7,5.4-4.7s4.1.7,5.7,1.9l-1.8,2.5c-1.4-1-2.7-1.5-4-1.5s-2,.6-2,1.3h0c0,1.1.6,1.4,3.3,2.1,3.1.8,4.9,1.9,4.9,4.6h0c0,3.1-2.3,4.8-5.6,4.8s-4.7-.8-6.6-2.4"/>
      <path class="st0" d="M226.2,160.7v-8.8h3.4v8.7c0,2.5,1.2,3.8,3.3,3.8s3.3-1.2,3.3-3.7v-8.8h3.4v8.7c0,4.7-2.6,7-6.7,7s-6.6-2.3-6.6-6.8"/>
    </g>
    <polygon class="st0" points="243 151.9 246.6 151.9 250.7 158.4 254.8 151.9 258.4 151.9 258.4 167.3 255 167.3 255 157.2 250.7 163.8 250.6 163.8 246.3 157.3 246.3 167.2 243 167.2 243 151.9"/>
    <g>
      <path class="st0" d="M24.3,139.2l53.9,31.1,53.9-31.1c2.9-1.7,4.6-4.7,4.8-7.8v-.4h0v-16.8c0-2.3-.8-4.3-2.1-5.9,0,0,0,0,0,0,0,0,0,0,0-.1-1.2-1.5-2.9-2.6-4.9-3.2l-91-24.3v-3.8l39.5-22.8,44.3,25.6c4.6,2.6,10.5,1.1,13.1-3.5,2.6-4.6,1.1-10.5-3.5-13.1l-53.9-31.1-53.9,31.1c-2.9,1.7-4.6,4.7-4.8,7.8v.4h0v16.8h0v.9c0,0,0,.2,0,.3,0,0,0,.1,0,.2,0,.1,0,.2,0,.3h0c0,.2,0,.4,0,.5h0c.3,1.2.8,2.4,1.5,3.4,0,.1.2.2.2.3h0c0,.1.1.2.2.3h0c0,.2.1.2.2.3,0,0,0,0,.1.1l.2.2s0,0,.1.1c0,0,.1,0,.2.1,0,0,.1,0,.2.1,0,0,.1,0,.2.1,0,0,.1,0,.2.1,0,0,.1,0,.2.1,0,0,.1,0,.2.1,0,0,.1,0,.2.1,0,0,0,0,.1,0,0,0,.2,0,.3.2,0,0,0,0,.1,0,.1,0,.2.1.3.2,0,0,0,0,0,0,.6.3,1.3.6,2,.7l90.9,24.4v3.9l-39.5,22.8-44.3-25.6c-4.6-2.6-10.5-1.1-13.1,3.5-2.6,4.6-1.1,10.5,3.5,13.1"/>
      <path class="st0" d="M135.5,171.2h0c-2.6-4.6-8.5-6.2-13.1-3.5l-44.3,25.6-44.3-25.6c-4.6-2.6-10.5-1.1-13.1,3.5s-1.1,10.5,3.5,13.1l53.9,31.1,53.9-31.1c4.6-2.6,6.1-8.5,3.5-13.1"/>
    </g>
  </g>
</svg>